<?xml version="1.0" encoding="iso-8859-1"?>
<!-- Uploaded to: SVG Repo, www.svgrepo.com, Generator: SVG Repo Mixer Tools -->
<svg height="800px" width="800px" version="1.1" id="Layer_1" xmlns="http://www.w3.org/2000/svg" xmlns:xlink="http://www.w3.org/1999/xlink" 
	 viewBox="0 0 478.536 478.536" xml:space="preserve">
<path style="fill:#FCB641;" d="M403.628,172.368C403.628,81.592,330.036,8,239.26,8S74.892,81.592,74.892,172.368
	c0,46.16,19.088,89.696,49.736,119.552l16.352,74.616h196.216l16.352-74.312C384.388,262.352,403.628,218.696,403.628,172.368z"/>
<path style="fill:#4D4D4D;" d="M337.196,374.536H140.98c-3.76,0-7.008-2.616-7.816-6.288l-15.84-72.312
	C85.244,263.752,66.9,218.856,66.9,172.36C66.9,77.32,144.228,0,239.268,0s172.368,77.32,172.368,172.36
	c0,46.664-18.48,91.672-50.776,123.904l-15.84,71.992C344.204,371.92,340.948,374.536,337.196,374.536z M147.42,358.536h183.352
	l14.968-68.024c0.336-1.536,1.12-2.936,2.248-4.024c30.28-29.336,47.648-70.936,47.648-114.12
	c0-86.216-70.144-156.36-156.368-156.36S82.9,86.152,82.9,172.368c0,43.032,17.248,84.52,47.32,113.824
	c1.12,1.096,1.896,2.488,2.232,4.016L147.42,358.536z"/>
<polygon style="fill:#EB805B;" points="319.092,414.536 159.092,414.536 143.092,358.536 335.092,358.536 "/>
<path style="fill:#4D4D4D;" d="M319.092,422.536h-160c-3.568,0-6.712-2.368-7.688-5.8l-16-56c-0.688-2.416-0.208-5.008,1.304-7.016
	s3.872-3.184,6.384-3.184h192c2.512,0,4.872,1.176,6.384,3.184s2,4.6,1.304,7.016l-16,56
	C325.804,420.168,322.66,422.536,319.092,422.536z M165.124,406.536h147.928l11.432-40H153.7L165.124,406.536z"/>
<polygon style="fill:#E66032;" points="297.532,446.536 181.652,446.536 168.092,414.536 311.092,414.536 "/>
<g>
	<path style="fill:#4D4D4D;" d="M297.532,454.536h-115.88c-3.208,0-6.112-1.92-7.368-4.88l-13.56-32
		c-1.048-2.472-0.784-5.304,0.696-7.536c1.488-2.24,3.992-3.584,6.672-3.584h143c2.68,0,5.184,1.344,6.664,3.584
		c1.488,2.24,1.744,5.072,0.696,7.536l-13.56,32C303.644,452.616,300.748,454.536,297.532,454.536z M186.948,438.536h105.288
		l6.776-16h-118.84L186.948,438.536z"/>
	<path style="fill:#4D4D4D;" d="M192.444,349.016c-3.864,0-7.272-2.816-7.888-6.76l-34.728-220.96
		c-0.688-4.36,2.296-8.464,6.664-9.144c4.344-0.672,8.456,2.288,9.144,6.664l34.728,220.96c0.688,4.36-2.296,8.464-6.664,9.144
		C193.276,348.984,192.86,349.016,192.444,349.016z"/>
	<path style="fill:#4D4D4D;" d="M285.74,349.016c-0.416,0-0.832-0.032-1.256-0.096c-4.36-0.68-7.344-4.784-6.664-9.144
		l34.728-220.96c0.688-4.368,4.8-7.32,9.144-6.664c4.36,0.68,7.344,4.784,6.664,9.144l-34.728,220.96
		C293.012,346.2,289.604,349.016,285.74,349.016z"/>
	<path style="fill:#4D4D4D;" d="M279.068,156.536c-14.44,0-21.584-11.424-26.8-19.76c-5.32-8.512-8.176-12.24-13.224-12.24
		c-5.04,0-7.896,3.728-13.216,12.24c-5.208,8.336-12.344,19.76-26.784,19.76c-14.424,0-21.56-11.424-26.768-19.76
		c-5.312-8.504-8.168-12.24-13.192-12.24c-4.416,0-8-3.584-8-8s3.584-8,8-8c14.424,0,21.56,11.424,26.768,19.76
		c5.312,8.504,8.168,12.24,13.192,12.24c5.032,0,7.896-3.728,13.208-12.24c5.208-8.336,12.352-19.76,26.784-19.76
		c14.44,0,21.576,11.416,26.792,19.76c5.328,8.512,8.184,12.24,13.232,12.24s7.904-3.728,13.232-12.24
		c5.216-8.336,12.352-19.76,26.792-19.76c4.416,0,8,3.584,8,8s-3.584,8-8,8c-5.048,0-7.904,3.728-13.232,12.24
		C300.644,145.12,293.508,156.536,279.068,156.536z"/>
	<path style="fill:#4D4D4D;" d="M239.092,470.536c-4.416,0-8-3.584-8-8v-16c0-4.416,3.584-8,8-8s8,3.584,8,8v16
		C247.092,466.952,243.508,470.536,239.092,470.536z"/>
	<path style="fill:#4D4D4D;" d="M199.092,478.536c-4.416,0-8-3.584-8-8v-24c0-4.416,3.584-8,8-8c4.416,0,8,3.584,8,8v24
		C207.092,474.952,203.508,478.536,199.092,478.536z"/>
	<path style="fill:#4D4D4D;" d="M279.092,478.536c-4.416,0-8-3.584-8-8v-24c0-4.416,3.584-8,8-8s8,3.584,8,8v24
		C287.092,474.952,283.508,478.536,279.092,478.536z"/>
</g>
<path style="fill:#F2F2F2;" d="M311.092,70.536h-8c-4.416,0-8-3.584-8-8s3.584-8,8-8h8c4.416,0,8,3.584,8,8
	S315.508,70.536,311.092,70.536z"/>
</svg>